<?xml version="1.0" encoding="utf-8"?>
<!-- Generator: Adobe Illustrator 24.3.0, SVG Export Plug-In . SVG Version: 6.00 Build 0)  -->
<svg version="1.1" id="Ebene_1" xmlns="http://www.w3.org/2000/svg" xmlns:xlink="http://www.w3.org/1999/xlink" x="0px" y="0px"
	 viewBox="0 0 226.8 226.8" style="enable-background:new 0 0 226.8 226.8;" xml:space="preserve">
<style type="text/css">
	.st0{fill:#393E3F;}
	.st1{fill:#AC8D6C;}
</style>
<g>
	<path class="st0" d="M36.8,132.2l0.2-0.7c4.1-16.1,29.2-23.9,76.3-24v-8.6h-0.9c-18.2,0-41.9-5.1-70.6-15.6
		c-7.1-2.6-12.2-4.6-16.9-4.6c-4.3,0-9.7,1.1-13.6,4.4c-7.8,6.5-9.9,17.6-7.5,26.6c1.8,6.9,8.6,19.2,33,25V132.2z"/>
	<path class="st0" d="M179.3,197.6c-7.1,0-11.5-5.7-16.1-11.7c-5.3-6.9-10.9-13.2-21.1-14.1c-19-1.7-27.6,13.6-27.7,13.8l-1,1.5
		l-1-1.5c-0.1-0.1-8.6-15.4-27.7-13.8c-10.3,0.9-15.8,7.1-21.1,14.1c-4.6,6-9,11.7-16.1,11.7c-7.1,0-11.9-1.9-14.8-3.6
		c1.1,2.4,2.9,5.7,6.1,9c7.7,8.1,19.7,12.4,34.5,12.4c9.7,0,30.3-4.7,39.1-22.3l1-1.9l1,1.9c8.8,17.6,29.5,22.3,39.1,22.3
		c14.8,0,26.8-4.3,34.5-12.4c3.1-3.3,5-6.6,6.1-9C191.2,195.7,186.4,197.6,179.3,197.6"/>
	<path class="st0" d="M189.9,132.2l-0.2-0.7c-4.1-16.1-29.3-23.9-76.3-24v-8.6h1c18.2,0,41.9-5.1,70.6-15.6
		c7.1-2.6,12.2-4.6,16.9-4.6c4.3,0,9.7,1.1,13.6,4.4c7.8,6.5,9.9,17.6,7.5,26.6c-1.8,6.9-8.4,19.2-33.1,25V132.2z"/>
	<path class="st0" d="M168.8,30C157,17.9,138,11.8,113.4,11.8C89,11.8,69.7,17.9,58,30C46.1,42.2,43.5,57.9,43.5,68.8v10.8
		c27.6,10.1,50.8,15.2,68.9,15.2h0.9h1c18.1,0,41.5-5,68.8-15.2V68.8C183.2,57.9,180.7,42.2,168.8,30"/>
	<path class="st0" d="M215.5,83.1c-4-3.3-9.3-4.4-13.6-4.4c-4.7,0-9.8,2-16.9,4.6c-28.7,10.6-52.4,15.6-70.6,15.6h-1h-0.9
		c-18.2,0-41.9-5.1-70.6-15.6c-7.1-2.6-12.2-4.6-16.9-4.6c-4.3,0-9.7,1.1-13.6,4.4c-7.8,6.5-9.9,17.6-7.5,26.6
		c1.8,6.9,8.6,19.2,33,25v-2.4l0.2-0.7c4.1-16.1,29.2-23.9,76.4-24c47,0.1,72.3,8,76.3,24l0.2,0.7v2.4c24.6-5.8,31.2-18,33.1-25
		C225.4,100.6,223.4,89.5,215.5,83.1"/>
	<path class="st1" d="M163.2,150.8l2.2,0.6c-2.3,9.3-11.8,14.7-21,12.1l0.6-2.2c-0.1-1.4-0.9-2.7-2.1-3.4c-1.2-0.7-2.7-0.7-4-0.1
		l-1.6,1.7c-3.3-3.2-5.1-7.5-5.1-12.1c0-4.6,1.9-8.9,5.1-12.1l1.6,1.7c1.3,0.6,2.7,0.6,4-0.1c1.2-0.7,2-2,2.1-3.4l-0.6-2.2
		c9.2-2.6,18.6,2.8,21,12.1l-2.2,0.6c-1.2,0.8-1.9,2.1-1.9,3.5C161.3,148.7,162,150,163.2,150.8 M89.3,159.4l-1.6-1.7
		c-1.3-0.6-2.7-0.6-4,0.1c-1.2,0.7-2,2-2.1,3.4l0.6,2.2c-9.2,2.6-18.6-2.8-21-12.1l2.2-0.6c1.2-0.8,1.9-2.1,1.9-3.5
		c0-1.4-0.7-2.7-1.9-3.5l-2.2-0.6c2.3-9.3,11.8-14.7,21-12.1l-0.6,2.2c0.1,1.4,0.8,2.7,2.1,3.4c1.2,0.7,2.7,0.7,4,0.1l1.6-1.7
		c3.3,3.2,5.1,7.5,5.1,12.1C94.4,151.9,92.6,156.2,89.3,159.4 M113.4,111.2c-44.6,0.1-69,7.2-72.5,21.2v15.1v27v10.2
		c0,3,2.5,5.5,5.5,5.5H55c1.9-1.8,3.7-4.1,5.6-6.6c5.6-7.3,12.1-14.5,23.8-15.5c1.1-0.1,2.1-0.1,3.2-0.1c4,0,7.5,0.7,10.6,1.7
		c0,0,0,0,0,0c2.8-10.8,9.9-12.1,15.3-12.1h0h0.1c5.3,0,12.4,1.3,15.3,12.1c0,0,0,0,0,0c3.1-1,6.6-1.7,10.6-1.7c1,0,2.1,0.1,3.2,0.1
		c11.7,1,18.2,8.2,23.8,15.5c1.9,2.5,3.7,4.8,5.6,6.6h8.6c3,0,5.5-2.5,5.5-5.5v-2.2v-34.9v-15.1
		C182.3,118.5,158.1,111.4,113.4,111.2"/>
</g>
</svg>
