<?xml version="1.0" encoding="utf-8"?>
<!-- Generator: Adobe Illustrator 24.3.0, SVG Export Plug-In . SVG Version: 6.00 Build 0)  -->
<svg version="1.1" id="Ebene_1" xmlns="http://www.w3.org/2000/svg" xmlns:xlink="http://www.w3.org/1999/xlink" x="0px" y="0px"
	 viewBox="0 0 841.9 230" style="enable-background:new 0 0 841.9 230;" xml:space="preserve">
<style type="text/css">
	.st0{fill:#FFFFFF;}
</style>
<g>
	<path class="st0" d="M54.6,116.6l0.2-0.6c3.6-14,25.4-20.9,66.6-21v-7.5h-0.8c-15.9,0-36.5-4.4-61.6-13.6c-6.2-2.3-10.6-4-14.8-4
		c-3.8,0-8.4,1-11.9,3.9c-6.8,5.7-8.6,15.3-6.6,23.2c1.6,6.1,7.5,16.7,28.8,21.8V116.6z"/>
	<path class="st0" d="M178.9,173.7c-6.2,0-10-5-14-10.2c-4.6-6-9.5-11.5-18.4-12.3c-16.6-1.4-24.1,11.9-24.2,12l-0.9,1.3l-0.9-1.3
		c-0.1-0.1-7.5-13.4-24.1-12c-9,0.8-13.8,6.2-18.4,12.3c-4,5.2-7.8,10.2-14,10.2c-6.2,0-10.4-1.6-12.9-3.2c0.9,2.1,2.6,5,5.3,7.8
		c6.8,7.1,17.2,10.8,30.1,10.8c8.4,0,26.4-4.1,34.1-19.4l0.9-1.7l0.9,1.7c7.7,15.4,25.7,19.4,34.1,19.4c12.9,0,23.4-3.8,30.1-10.8
		c2.7-2.9,4.4-5.8,5.3-7.8C189.3,172.1,185.1,173.7,178.9,173.7"/>
	<path class="st0" d="M188.2,116.6L188,116c-3.6-14-25.6-20.9-66.6-21v-7.5h0.9c15.9,0,36.5-4.4,61.6-13.6c6.2-2.3,10.6-4,14.8-4
		c3.8,0,8.4,1,11.9,3.9c6.8,5.7,8.6,15.3,6.5,23.2c-1.6,6.1-7.4,16.7-28.8,21.8V116.6z"/>
	<path class="st0" d="M169.7,27.5c-10.3-10.6-26.8-15.9-48.3-15.9c-21.3,0-38.1,5.4-48.3,15.9C62.7,38.2,60.5,51.8,60.5,61.4v9.5
		c24.1,8.8,44.3,13.2,60.1,13.2h0.8h0.9c15.8,0,36.2-4.4,60-13.2v-9.5C182.3,51.8,180.1,38.2,169.7,27.5"/>
	<path class="st0" d="M210.5,73.8c-3.5-2.9-8.1-3.9-11.9-3.9c-4.1,0-8.6,1.7-14.8,4c-25,9.2-45.7,13.6-61.6,13.6h-0.9h-0.8
		c-15.9,0-36.5-4.4-61.6-13.6c-6.2-2.3-10.6-4-14.8-4c-3.8,0-8.4,1-11.9,3.9c-6.8,5.7-8.6,15.3-6.6,23.2c1.6,6,7.5,16.7,28.8,21.8
		v-2.1l0.2-0.6c3.6-14,25.4-20.9,66.6-21c41,0.1,63,7,66.6,21l0.2,0.6v2.1c21.5-5.1,27.3-15.7,28.8-21.8
		C219.1,89.1,217.4,79.5,210.5,73.8"/>
	<path class="st0" d="M164.9,132.9l2,0.5c-2,8.1-10.3,12.8-18.3,10.6l0.6-1.9c-0.1-1.2-0.7-2.3-1.8-2.9c-1.1-0.6-2.4-0.6-3.4-0.1
		l-1.4,1.5c-2.9-2.8-4.5-6.6-4.5-10.6c0-4,1.6-7.8,4.5-10.6l1.4,1.5c1.1,0.6,2.4,0.5,3.4-0.1c1.1-0.6,1.7-1.7,1.8-2.9l-0.6-1.9
		c8-2.3,16.3,2.5,18.3,10.6l-2,0.5c-1,0.7-1.7,1.8-1.7,3C163.2,131.1,163.8,132.2,164.9,132.9 M100.4,140.4l-1.4-1.5
		c-1.1-0.6-2.4-0.5-3.4,0.1c-1.1,0.6-1.7,1.7-1.8,2.9l0.6,1.9c-8,2.3-16.2-2.5-18.3-10.6l2-0.5c1-0.7,1.6-1.8,1.6-3
		c0-1.2-0.6-2.4-1.6-3l-2-0.5c2-8.1,10.3-12.8,18.3-10.6l-0.6,1.9c0.1,1.2,0.7,2.3,1.8,2.9c1.1,0.6,2.4,0.6,3.4,0.1l1.4-1.5
		c2.9,2.8,4.5,6.6,4.5,10.6C104.9,133.8,103.3,137.6,100.4,140.4 M121.4,98.4c-38.9,0.1-60.2,6.3-63.3,18.5V130v23.5v8.9
		c0,2.6,2.1,4.8,4.8,4.8h7.6c1.6-1.6,3.2-3.6,4.9-5.8c4.9-6.4,10.5-12.7,20.8-13.5c0.9-0.1,1.9-0.1,2.8-0.1c3.5,0,6.5,0.6,9.2,1.5
		c0,0,0,0,0,0c2.5-9.4,8.6-10.6,13.3-10.6h0h0.1c4.7,0,10.8,1.1,13.3,10.6c0,0,0,0,0,0c2.7-0.9,5.8-1.5,9.2-1.5c0.9,0,1.8,0,2.8,0.1
		c10.2,0.9,15.9,7.2,20.8,13.5c1.7,2.2,3.2,4.2,4.9,5.8h7.5c2.6,0,4.8-2.1,4.8-4.8v-2V130v-13.2C181.6,104.7,160.5,98.5,121.4,98.4"
		/>
	<path class="st0" d="M803.6,141.8c0,11.3-5.1,17.4-13.8,17.4h-8.4V124h8C798.3,124,803.6,130.8,803.6,141.8 M815.1,141.8
		c0-16.8-9.7-26.7-24.9-26.7h-13.8c-4.2,0-6.7,2.4-6.7,6.3v40.6c0,3.9,2.5,6.2,6.7,6.2H790C805,168.2,815.1,158.6,815.1,141.8
		 M749.1,130.7c0,2.6-1.2,4.7-2.6,6.6l-2.1,2.8h-13.8v-16.7H742C747,123.5,749.1,126.4,749.1,130.7 M762.8,168.2l-10.1-22.7l3.3-4
		c2.5-3.1,4.3-6.6,4.3-11c0-9.9-6.2-15.3-16.5-15.3h-18.3c-4.1,0-6.6,2.5-6.6,6.2v46.9h11.6v-19.5h11.7l8.3,19.5H762.8z
		 M695.2,149.9H680l7.8-23.6L695.2,149.9z M712.5,168.2l-16.4-48.3c-1.1-3.4-3.9-5.3-8.1-5.3c-4.4,0-7.1,1.9-8.3,5.4l-17,48.2h11.7
		l3.3-9.7h19.8l3.2,9.7H712.5z M650.7,141.8c0,11.9-5.1,18.5-13.8,18.5c-8.8,0-14.1-6.6-14.1-18.5c0-11.8,5-18.4,13.8-18.4
		C645.5,123.4,650.7,130,650.7,141.8 M662.5,141.8c0-17.3-10.2-27-25.5-27c-15.3,0-25.9,9.8-25.9,27c0,17.2,10.2,27,25.5,27
		C652,168.7,662.5,159.2,662.5,141.8 M588.7,145.6l2.8,2.9c1.5,1.6,2.3,3.3,2.3,5.3c0,3.6-2.4,6-7.1,6h-12.6v-14.2H588.7z
		 M592.3,129.2c0,2-0.6,3.8-1.7,5.3l-2.1,2.9h-14.4v-14h11.8C590.5,123.4,592.3,125.8,592.3,129.2 M587.9,168.2
		c11.2,0,17.2-5.2,17.2-14c0-4-1.7-7.3-4.7-10.3l-2.7-2.7l2.2-2.9c2.1-2.7,3.4-5.9,3.4-9.6c0-9.1-5.8-13.5-15.6-13.5h-18.3
		c-4.2,0-6.6,2.4-6.6,6.2v40.6c0,3.9,2.5,6.2,6.7,6.2H587.9z M543.8,141.8c0,11.3-5.1,17.4-13.8,17.4h-8.4V124h8
		C538.6,124,543.8,130.8,543.8,141.8 M555.3,141.8c0-16.8-9.7-26.7-24.9-26.7h-13.8c-4.2,0-6.7,2.4-6.7,6.3v40.6
		c0,3.9,2.5,6.2,6.7,6.2h13.5C545.3,168.2,555.3,158.6,555.3,141.8 M489.3,130.7c0,2.6-1.2,4.7-2.6,6.6l-2.1,2.8h-13.8v-16.7h11.5
		C487.2,123.5,489.3,126.4,489.3,130.7 M503,168.2l-10.1-22.7l3.3-4c2.5-3.1,4.4-6.6,4.4-11c0-9.9-6.2-15.3-16.5-15.3h-18.3
		c-4.1,0-6.6,2.5-6.6,6.2v46.9h11.6v-19.5h11.7l8.3,19.5H503z M435.5,149.9h-15.3l7.8-23.6L435.5,149.9z M452.7,168.2l-16.4-48.3
		c-1.1-3.4-3.9-5.3-8.1-5.3c-4.4,0-7.1,1.9-8.3,5.4l-17,48.2h11.7l3.3-9.7h19.7l3.2,9.7H452.7z M353.7,141.7c0,18.3,10.2,27,24.7,27
		c4.8,0.1,9.6-1,14.7-2.6l4.1-1.3l-1.5-9.5l-4.3,1.4c-4.2,1.4-8.1,2.1-11.6,2.1c-8.8,0-14-5.3-14-17.1c0-11.7,5.1-17.2,14-17.2
		c3.7,0,7.2,0.9,11.7,2.2l4.3,1.3l1.5-9.4l-4.1-1.3c-5.1-1.6-9.8-2.6-14.6-2.6C364.2,114.7,353.7,123.7,353.7,141.7 M339.7,165.3
		c0-2.2-1.2-3.6-3.1-3.6c-1.9,0-3.1,1.4-3.1,3.6c0,2.1,1.2,3.5,3.1,3.5C338.5,168.8,339.7,167.4,339.7,165.3 M316.9,129.2
		c0,3.4-1.7,6.2-3.6,8.8l-3.1,4.3h-19.9V119h16.8C314.4,119,316.9,123.3,316.9,129.2 M324.3,168.2L313.4,145l4.3-5.6
		c2.1-2.9,3.9-6.4,3.9-10.2c0-9.2-5.3-14-14.1-14h-17.3c-2.8,0-4.3,1.4-4.3,4.2v48.8h4.6v-21.9h18.8l10.1,21.9H324.3z M246.5,163.3
		L230.2,118c-0.8-2.2-2.2-3.2-4.5-3.2c-2.1,0-3.8,0.9-3.8,3.7v49.7h4.3v-47.7l16.9,45.8c0.5,1.4,1.6,2.2,3.4,2.2
		c1.7,0,2.7-0.7,3.3-2.2l17.2-45.8v47.7h4.4v-49.7c0-2.7-1.6-3.7-3.6-3.7c-1.9,0-3.4,1-4.2,3.2L246.5,163.3z"/>
</g>
<g>
	<path class="st0" d="M334.9,213.6c-0.2,0.9-0.8,1.4-1.7,1.4c-0.8,0-1.4-0.4-1.7-1.3l-4.9-15l-5.2,15c-0.3,0.8-0.8,1.2-1.7,1.2
		c-0.9,0-1.5-0.5-1.7-1.4l-3.4-17.4h2.2l3.1,16.5l5.3-15.6c0.2-0.7,0.7-1,1.4-1c0.7,0,1.2,0.4,1.4,1l5.3,15.6l3.3-16.5h2.1
		L334.9,213.6z"/>
	<path class="st0" d="M366.3,213.6c-0.2,0.9-0.8,1.4-1.7,1.4c-0.8,0-1.4-0.4-1.7-1.3l-4.9-15l-5.2,15c-0.3,0.8-0.8,1.2-1.7,1.2
		c-0.9,0-1.5-0.5-1.7-1.4l-3.4-17.4h2.2l3.1,16.5l5.3-15.6c0.2-0.7,0.7-1,1.4-1c0.7,0,1.2,0.4,1.4,1l5.3,15.6l3.3-16.5h2.1
		L366.3,213.6z"/>
	<path class="st0" d="M397.6,213.6c-0.2,0.9-0.8,1.4-1.7,1.4c-0.8,0-1.4-0.4-1.7-1.3l-4.9-15l-5.2,15c-0.3,0.8-0.8,1.2-1.7,1.2
		c-0.9,0-1.5-0.5-1.7-1.4l-3.4-17.4h2.2l3.1,16.5l5.3-15.6c0.2-0.7,0.7-1,1.4-1c0.7,0,1.2,0.4,1.4,1l5.3,15.6l3.3-16.5h2.1
		L397.6,213.6z"/>
	<path class="st0" d="M409.6,215c-0.9,0-1.5-0.6-1.5-1.7c0-1.1,0.6-1.7,1.5-1.7c0.9,0,1.5,0.6,1.5,1.7
		C411.1,214.3,410.5,215,409.6,215z"/>
	<path class="st0" d="M422.5,214.7h-2.1v-15.5c0-1.3,0.6-1.9,1.8-2.2c2.1-0.7,3.8-0.8,5.1-0.8c2.1,0,3.6,0.6,4.6,1.6
		c2.2-1,4.4-1.6,6.4-1.6c4.3,0,6.1,2.6,6.1,6.3v12.3h-2.1v-12.1c0-2.7-1-4.5-4.2-4.5c-1.8,0-3.2,0.4-5.2,1.2c0.4,0.9,0.6,2,0.6,3.1
		v12.3h-2.1v-12.2c0-2.7-1.1-4.5-4.2-4.5c-1.2,0-2.4,0.1-4.7,0.8V214.7z"/>
	<path class="st0" d="M463.2,198.2c-2.3,0-4.4,0.1-6.8,0.8v15.7h-2.1v-15.6c0-1.3,0.6-1.9,1.8-2.2c2.6-0.7,4-0.8,7.1-0.8V198.2z"/>
	<path class="st0" d="M478.2,196c1.3,0,3,0.3,5.2,0.9l1.3,0.3l-0.4,2l-1.3-0.3c-2.1-0.5-3.6-0.9-4.7-0.9c-3.9,0-6,2.4-6,7.4
		c0,5,2.1,7.4,6.1,7.4c1.1,0,2.5-0.3,4.6-0.9l1.3-0.3l0.4,2l-1.3,0.4c-2.2,0.6-3.8,0.9-5.2,0.9c-4.8,0-8.1-2.9-8.1-9.5
		C470.1,199.2,473.4,196,478.2,196z"/>
	<path class="st0" d="M508.8,215l-1.5-0.9c-0.7-0.4-1.4-0.6-2.4-0.3l-1.4,0.4c-1.7,0.4-3.6,0.8-5.1,0.8c-3.7,0-5.9-1.9-5.9-5
		c0-4.1,3.3-5.4,7.1-5.4h5.8v-2.3c0-3-1.8-4.1-4.6-4.1c-1.7,0-3.7,0.5-5.9,1.1l-1.3,0.4l-0.4-2l1.3-0.3c2.4-0.6,4.5-1.2,6.4-1.2
		c3.7,0,6.6,1.8,6.6,6.2v9.9l2.2,1.4L508.8,215z M505.3,206.3h-5.8c-3.2,0-5,1-5,3.5c0,2.2,1.5,3.2,4.1,3.2c1.1,0,2.9-0.3,4.6-0.7
		l2.2-0.5V206.3z"/>
	<path class="st0" d="M526.8,198.2c-2.3,0-4.4,0.1-6.8,0.8v15.7H518v-15.6c0-1.3,0.6-1.9,1.8-2.2c2.6-0.7,4-0.8,7.1-0.8V198.2z"/>
	<path class="st0" d="M549.4,188.4v23.4c0,1.2-0.6,1.9-1.8,2.1c-3.1,0.7-4.7,0.9-5.8,0.9c-5.2,0-8.2-3.4-8.2-9.3c0-6,3-9.5,8.2-9.5
		c1.2,0,2.5,0.2,5.5,1.2v-8.4L549.4,188.4z M535.9,205.5c0,4.3,1.7,7.4,6.2,7.4c1.1,0,2.3-0.1,5.3-0.8v-13c-3.1-0.8-4.3-1-5.4-1
		C537.5,198.1,535.9,201.1,535.9,205.5z"/>
	<path class="st0" d="M575.2,205.5c0,5.6-3.1,9.3-8.3,9.3c-1.3,0-3-0.2-5.6-0.8c-1.2-0.3-1.8-0.9-1.8-2.2v-22.8l2.1-0.4v8.7
		c2.9-1,4.6-1.2,5.7-1.2C572.5,196.1,575.2,199.5,575.2,205.5z M561.5,199.1v13c3,0.7,4.2,0.8,5.3,0.8c4.5,0,6.3-3.1,6.3-7.4
		c0-4.4-1.6-7.4-6.1-7.4C565.8,198.1,564.6,198.2,561.5,199.1z"/>
	<path class="st0" d="M591.9,214.9c-5.2,0-8.5-3.5-8.5-9.5c0-6.1,3.4-9.5,8.6-9.5c5.2,0,8.4,3.4,8.4,9.5
		C600.5,211.5,597.1,214.9,591.9,214.9z M591.9,197.9c-4,0-6.3,2.8-6.3,7.6c0,4.9,2.3,7.6,6.4,7.6c4,0,6.3-2.8,6.3-7.6
		C598.3,200.7,596,197.9,591.9,197.9z"/>
	<path class="st0" d="M625.2,215l-1.5-0.9c-0.7-0.4-1.4-0.6-2.4-0.3l-1.4,0.4c-1.7,0.4-3.6,0.8-5.1,0.8c-3.7,0-5.9-1.9-5.9-5
		c0-4.1,3.3-5.4,7.1-5.4h5.8v-2.3c0-3-1.8-4.1-4.6-4.1c-1.7,0-3.7,0.5-5.9,1.1l-1.3,0.4l-0.4-2l1.3-0.3c2.4-0.6,4.5-1.2,6.4-1.2
		c3.7,0,6.6,1.8,6.6,6.2v9.9l2.2,1.4L625.2,215z M621.8,206.3h-5.8c-3.2,0-5,1-5,3.5c0,2.2,1.5,3.2,4.1,3.2c1.1,0,2.9-0.3,4.6-0.7
		l2.2-0.5V206.3z"/>
	<path class="st0" d="M643.3,198.2c-2.3,0-4.4,0.1-6.8,0.8v15.7h-2.1v-15.6c0-1.3,0.6-1.9,1.8-2.2c2.6-0.7,4-0.8,7.1-0.8V198.2z"/>
	<path class="st0" d="M665.9,188.4v23.4c0,1.2-0.6,1.9-1.8,2.1c-3.1,0.7-4.7,0.9-5.8,0.9c-5.2,0-8.2-3.4-8.2-9.3c0-6,3-9.5,8.2-9.5
		c1.2,0,2.5,0.2,5.5,1.2v-8.4L665.9,188.4z M652.3,205.5c0,4.3,1.7,7.4,6.2,7.4c1.1,0,2.3-0.1,5.3-0.8v-13c-3.1-0.8-4.3-1-5.4-1
		C654,198.1,652.3,201.1,652.3,205.5z"/>
	<path class="st0" d="M676.8,215c-0.9,0-1.5-0.6-1.5-1.7c0-1.1,0.6-1.7,1.5-1.7c0.9,0,1.5,0.6,1.5,1.7
		C678.3,214.3,677.8,215,676.8,215z"/>
	<path class="st0" d="M685.8,205.5c0-6.6,3.8-9.6,8.2-9.6c4.8,0,8.1,2.9,8.1,9.1c0,0.9-0.4,1.4-1.2,1.4H688c0.2,4.4,3,6.5,6.6,6.5
		c1.5,0,2.8-0.2,5.1-1l1.7-0.5l0.4,1.9l-1.6,0.5c-2.3,0.8-3.8,1.1-5.7,1.1C689.3,214.9,685.8,211.8,685.8,205.5z M693.9,197.8
		c-3.5,0-5.7,2.6-5.9,6.7h11.9C699.9,200.7,698.1,197.8,693.9,197.8z"/>
	<path class="st0" d="M723.4,196.2h2.1v15.6c0,1.3-0.6,1.9-1.8,2.2c-3,0.8-4.7,0.8-5.8,0.8c-4.8,0-6.8-2.9-6.8-6.6v-12h2.1V208
		c0,2.8,1.2,4.8,4.9,4.8c1.2,0,2.4-0.1,5.3-0.8V196.2z"/>
</g>
</svg>
