<?xml version="1.0" encoding="utf-8"?>
<!-- Generator: Adobe Illustrator 24.3.0, SVG Export Plug-In . SVG Version: 6.00 Build 0)  -->
<svg version="1.1" id="Layer_1" xmlns="http://www.w3.org/2000/svg" xmlns:xlink="http://www.w3.org/1999/xlink" x="0px" y="0px"
	 viewBox="0 0 595.3 841.9" style="enable-background:new 0 0 595.3 841.9;" xml:space="preserve">
<style type="text/css">
	.st0{fill:#00FF24;}
</style>
<path class="st0" d="M482.6,445.8H81.7l9.9,19.8l-3.9,9.9l-3.9,9.9v243.8h0.7c6.8,0,13.2-3.5,16.8-9.3
	c21.7-34.5,51.9-62.8,87.8-82.2c5.6-3.3,11.3-6.1,17.3-8.6c9.9-4.2,18.2-11.5,23.5-21c0.4-0.8,0.8-1.5,1.3-2.3
	c5.3-14.2,12.8-27.4,22.4-39.2c3.1-3.8,6.6-7.4,10.4-10.6c10.8-9.1,26.5-9.1,37.4-0.1c3.8,3.1,7.2,6.7,10.1,10.5
	c9.2,11.9,16.5,25.2,21.8,39.3c0.2,0.3,0.4,0.7,0.6,1c5.3,9.8,14,17.5,24.3,21.7c6,2.4,11.8,5.5,17.2,9.1
	c33.4,22.7,62.9,50.8,87.1,83.1c4,5.3,10.3,8.5,17,8.5h1.1V485.5l-3.9-9.9l-3.9-9.9L482.6,445.8L482.6,445.8z M190.1,605.9h-52.6
	c-2.7,0-4.9-2.3-4.9-5s2.2-4.8,4.9-4.9h52.6c2.7,0,4.9,2.3,4.9,5S192.8,605.8,190.1,605.9z M190.6,559.5c-2.2,4.8-6.1,8.7-10.9,10.9
	c-1.1,0.5-2.3,1-3.5,1.4c-7.9,1.8-16,2.8-24.1,2.9c-4.9,0.1-9.8-0.3-14.6-1.2c-4.6-0.8-9-2.6-12.8-5.2c-2.5-1.7-4.5-3.9-6.1-6.5
	c-1.8-3.2-3.2-6.5-4.3-9.9c-2.1-6.6-3.8-13.3-4.9-20c-1.2-6.3-2.1-12.7-2.8-19c0.1-1.3,0.9-2.4,2.1-2.9c0.6-0.3,1.3-0.4,2-0.4h67.2
	c5.5,0,10.6,3.2,12.9,8.3C196.8,531,196.7,546.3,190.6,559.5z M426.8,605.9h-52.6c-2.7,0-4.9-2.3-4.9-5s2.2-4.8,4.9-4.9h52.6
	c2.7,0,4.9,2.3,4.9,5C431.6,603.7,429.4,605.8,426.8,605.9z"/>
</svg>
