<?xml version="1.0" encoding="utf-8"?>
<!-- Generator: Adobe Illustrator 24.3.0, SVG Export Plug-In . SVG Version: 6.00 Build 0)  -->
<svg version="1.1" id="Layer_2_1_" xmlns="http://www.w3.org/2000/svg" xmlns:xlink="http://www.w3.org/1999/xlink" x="0px" y="0px"
	 viewBox="0 0 541.29 374.75" style="enable-background:new 0 0 541.29 374.75;" xml:space="preserve">
<style type="text/css">
	.st0{fill:#00A651;}
</style>
<path class="st0" d="M354.07,47.01H239.31H43.68v1.41v229.4h47.53l2.83,9.98h51.02l2.84-9.99h29.32c1.83,0,3.45-1.17,4.03-2.9
	l21.95-65.66c3.64-10.89,12.19-19.45,23.08-23.09c19.16-6.41,39.88,3.92,46.3,23.07l21.97,65.67c0.58,1.74,2.2,2.91,4.03,2.91
	l29.25-0.01l2.84,9.99h51.01l2.84-9.99h47.52l-0.01-230.79h-35.44L354.07,47.01z M151.17,209.71c-19.88,0-36-16.12-36-36
	s16.12-36,36-36c19.89,0,36,16.12,36,36S171.06,209.71,151.17,209.71z M323.92,209.71c-19.88,0-36-16.12-36-36s16.12-36,36-36
	s36,16.12,36,36S343.8,209.71,323.92,209.71z"/>
</svg>
