<?xml version="1.0" encoding="utf-8"?>
<!-- Generator: Adobe Illustrator 24.3.0, SVG Export Plug-In . SVG Version: 6.00 Build 0)  -->
<svg version="1.1" id="Layer_1" xmlns="http://www.w3.org/2000/svg" xmlns:xlink="http://www.w3.org/1999/xlink" x="0px" y="0px"
	 viewBox="0 0 595.28 841.89" style="enable-background:new 0 0 595.28 841.89;" xml:space="preserve">
<style type="text/css">
	.st0{fill:#00A651;}
</style>
<path class="st0" d="M482.6,106.97l-400.94-0.01l-0.01,59.53l0.02,0.85l9.91,19l-9.93,19.84v17.76v221.85l9.92,19.84l-3.88,9.92
	l-3.88,9.89L83.8,729.25h0.68c6.82,0,13.17-3.51,16.8-9.29c21.68-34.52,51.93-62.84,87.81-82.2c5.56-3.26,11.33-6.14,17.28-8.63
	c9.94-4.16,18.2-11.54,23.46-20.95c0.43-0.77,0.85-1.55,1.28-2.33c5.27-14.19,12.83-27.43,22.38-39.18
	c3.12-3.84,6.6-7.38,10.39-10.57c10.79-9.06,26.51-9.1,37.35-0.1c3.76,3.12,7.17,6.65,10.15,10.52
	c9.21,11.93,16.55,25.2,21.77,39.33c0.19,0.35,0.37,0.69,0.56,1.03c5.35,9.84,13.95,17.51,24.34,21.69
	c6.01,2.42,11.76,5.46,17.15,9.06c33.43,22.69,62.88,50.77,87.13,83.08v0c4.02,5.35,10.32,8.5,17.01,8.5h1.12V485.45l-3.89-9.9
	l-3.9-9.91l9.92-19.84l0.01-239.61l-9.92-19.84l9.92-19.85V106.97z M190.14,605.86l-52.61,0c-2.74-0.04-4.92-2.3-4.88-5.04
	c0.04-2.68,2.2-4.84,4.88-4.88l52.61,0c2.74,0.04,4.92,2.3,4.88,5.04C194.97,603.66,192.82,605.82,190.14,605.86z M190.56,559.48
	c-2.25,4.8-6.11,8.67-10.91,10.92c-1.13,0.53-2.29,1-3.48,1.41c-7.91,1.8-16,2.77-24.11,2.91c-4.9,0.1-9.79-0.32-14.59-1.24
	c-4.59-0.83-8.95-2.59-12.83-5.17c-2.46-1.7-4.52-3.91-6.06-6.48c-1.78-3.16-3.22-6.49-4.32-9.94c-2.1-6.56-3.75-13.26-4.93-20.05
	c-1.17-6.31-2.1-12.67-2.78-19.05c0.06-1.3,0.91-2.43,2.13-2.87c0.62-0.26,1.28-0.4,1.95-0.39h-0.01h0.01l0,0l67.21,0
	c5.54,0,10.57,3.23,12.88,8.27C196.79,531.04,196.73,546.28,190.56,559.48z M426.76,605.87l-52.6,0c-2.74-0.04-4.92-2.3-4.88-5.04
	c0.04-2.68,2.2-4.84,4.88-4.88l52.6,0c2.74,0.04,4.92,2.3,4.88,5.04C431.6,603.66,429.44,605.82,426.76,605.87z"/>
</svg>
