<?xml version="1.0" encoding="utf-8"?>
<!-- Generator: Adobe Illustrator 24.3.0, SVG Export Plug-In . SVG Version: 6.00 Build 0)  -->
<svg version="1.1" id="Layer_1" xmlns="http://www.w3.org/2000/svg" xmlns:xlink="http://www.w3.org/1999/xlink" x="0px" y="0px"
	 viewBox="0 0 388.35 229.61" style="enable-background:new 0 0 388.35 229.61;" xml:space="preserve">
<style type="text/css">
	.st0{fill:#ED2024;}
</style>
<path class="st0" d="M388.34,0H352.9H0v1.4v228.2h47.53l86.01-0.01c1.83,0,3.45-1.16,4.03-2.88l21.95-65.32
	c3.64-10.83,12.19-19.35,23.08-22.97c19.16-6.38,39.88,3.9,46.3,22.95l21.97,65.33c0.58,1.73,2.2,2.89,4.03,2.89l85.94-0.01h47.52
	L388.34,0z M107.48,162.1c-19.88,0-36-16.12-36-36s16.12-36,36-36c19.89,0,36,16.12,36,36S127.37,162.1,107.48,162.1z M280.23,162.1
	c-19.88,0-36-16.12-36-36s16.12-36,36-36c19.88,0,36,16.12,36,36S300.11,162.1,280.23,162.1z"/>
</svg>
